<?xml version="1.0" standalone="no"?>
<!DOCTYPE svg PUBLIC "-//W3C//DTD SVG 20010904//EN"
 "http://www.w3.org/TR/2001/REC-SVG-20010904/DTD/svg10.dtd">
<svg version="1.0" xmlns="http://www.w3.org/2000/svg"
 width="125.000000pt" height="125.000000pt" viewBox="0 0 125.000000 125.000000"
 preserveAspectRatio="xMidYMid meet">
<metadata>
Created by potrace 1.14, written by Peter Selinger 2001-2017
</metadata>
<g transform="translate(0.000000,125.000000) scale(0.100000,-0.100000)"
fill="#000000" stroke="none">
<path d="M766 852 c-4 -4 -40 -7 -79 -7 l-72 0 0 -30 c0 -16 -4 -35 -8 -42 -4
-6 -3 -15 3 -18 8 -5 8 -11 0 -20 -8 -10 -8 -15 0 -20 8 -5 8 -10 0 -20 -8
-10 -8 -15 0 -20 8 -5 8 -11 1 -19 -6 -7 -8 -16 -4 -19 9 -9 8 -71 -1 -85 -4
-7 -3 -12 3 -12 10 0 7 -31 -4 -50 -3 -6 -2 -10 3 -10 5 0 8 -13 6 -28 -3 -27
-2 -28 46 -27 26 0 51 3 55 7 4 4 8 31 10 60 1 29 3 58 3 63 1 6 28 10 59 11
32 0 59 6 61 12 2 6 9 9 15 6 25 -9 76 93 68 139 -1 4 -3 17 -4 28 -5 30 -52
79 -77 79 -14 0 -19 4 -14 13 5 8 2 8 -9 -2 -13 -11 -17 -11 -17 -1 0 8 -3 10
-7 7 -3 -4 -11 -2 -18 3 -7 5 -15 7 -19 2z m39 -116 c8 -10 12 -23 9 -28 -3
-4 1 -8 8 -8 9 0 9 -3 -2 -10 -8 -5 -11 -10 -5 -10 5 0 -1 -8 -15 -17 -25 -17
-69 -27 -71 -15 -1 4 -3 31 -4 60 l-3 53 35 -3 c21 -1 40 -10 48 -22z"/>
<path d="M336 840 c-2 -3 -2 -21 -2 -40 2 -35 2 -35 50 -38 47 -3 48 -4 44
-33 -3 -16 0 -29 5 -29 5 0 4 -7 -3 -15 -10 -12 -10 -15 1 -15 9 0 10 -3 4 -8
-6 -4 -10 -31 -9 -60 1 -66 -25 -108 -57 -92 -13 8 -19 7 -19 0 0 -6 -4 -8
-10 -5 -20 12 -50 14 -51 2 -5 -74 -4 -77 16 -79 65 -5 155 -3 155 4 0 4 6 8
13 8 19 0 45 35 61 80 10 29 10 40 2 40 -6 0 -4 5 4 10 10 6 11 10 3 10 -9 0
-10 7 -3 25 5 14 6 25 1 25 -4 0 -8 7 -8 15 0 8 4 15 9 15 5 0 4 8 -1 18 -5
10 -6 24 -1 32 4 7 4 23 0 35 -5 14 -4 27 3 34 8 8 8 11 -1 11 -9 0 -10 5 -2
19 7 15 7 22 -2 28 -14 8 -198 11 -202 3z"/>
</g>
</svg>
